<?xml version="1.0" encoding="UTF-8"?>
<svg version="1.1" xmlns="http://www.w3.org/2000/svg" width="107" height="110">
<path d="M0 0 C4.47223846 1.73413328 7.92324158 4.56873671 11.0625 8.1875 C11.79296875 10.41796875 11.79296875 10.41796875 12.0625 12.1875 C11.4025 12.1875 10.7425 12.1875 10.0625 12.1875 C10.866875 12.868125 11.67125 13.54875 12.5 14.25 C15.50884871 17.69916803 15.72443143 19.70809139 16.0625 24.1875 C16.5575 25.1775 16.5575 25.1775 17.0625 26.1875 C11.3457618 32.22183476 11.3457618 32.22183476 8.0625 33.1875 C4.3125 32.8125 4.3125 32.8125 1.0625 32.1875 C1.0625 34.1675 1.0625 36.1475 1.0625 38.1875 C-2.09865776 36.81766497 -2.9302092 36.1984362 -4.9375 33.1875 C-6.92243109 32.99226088 -8.90760124 32.79872066 -10.89453125 32.625 C-14.29968898 31.8957884 -15.89304562 29.87084638 -17.9375 27.1875 C-17.9375 23.33283179 -16.9175583 19.88313651 -15.9375 16.1875 C-15.504375 14.3621875 -15.504375 14.3621875 -15.0625 12.5 C-13.37814181 7.54050089 -10.91425492 4.62721124 -6.5625 1.8125 C-2.9375 0.1875 -2.9375 0.1875 0 0 Z M-13.9375 13.1875 C-10.6375 12.8575 -7.3375 12.5275 -3.9375 12.1875 C-4.2675 11.5275 -4.5975 10.8675 -4.9375 10.1875 C-10.032842 9.77939416 -10.032842 9.77939416 -13.9375 13.1875 Z M1.0625 11.1875 C1.3925 11.8475 1.7225 12.5075 2.0625 13.1875 C4.0425 12.5275 6.0225 11.8675 8.0625 11.1875 C8.0625 10.8575 8.0625 10.5275 8.0625 10.1875 C4.43364676 10.03600702 4.43364676 10.03600702 1.0625 11.1875 Z M-11.8125 16.25 C-13.58532183 19.30319315 -12.62985306 21.85161708 -11.9375 25.1875 C-7.83526415 26.20290112 -7.83526415 26.20290112 -3.9375 25.1875 C-3.91060784 23.70843108 -3.89115379 22.22922517 -3.875 20.75 C-3.86339844 19.92628906 -3.85179687 19.10257813 -3.83984375 18.25390625 C-3.70482652 16.19586062 -3.70482652 16.19586062 -4.9375 15.1875 C-7.6967273 14.89705502 -9.37447676 14.8684535 -11.8125 16.25 Z M1.0625 16.1875 C1.0625 19.1575 1.0625 22.1275 1.0625 25.1875 C5.66104277 26.31069413 5.66104277 26.31069413 10.0625 25.1875 C11.62104182 22.07041635 10.75034644 19.5016692 10.0625 16.1875 C5.44742226 15.14535309 5.44742226 15.14535309 1.0625 16.1875 Z M-16.9375 24.1875 C-15.9375 26.1875 -15.9375 26.1875 -15.9375 26.1875 Z M14.0625 24.1875 C15.0625 26.1875 15.0625 26.1875 15.0625 26.1875 Z M10.0625 28.1875 C9.4025 28.8475 8.7425 29.5075 8.0625 30.1875 C9.3825 29.8575 10.7025 29.5275 12.0625 29.1875 C11.4025 28.8575 10.7425 28.5275 10.0625 28.1875 Z " fill="#070707" transform="translate(54.9375,22.8125)"/>
<path d="M0 0 C3.62349859 2.73775449 4.83752613 4.20117013 5.75 8.6875 C5.87375 10.3271875 5.87375 10.3271875 6 12 C6.33 12.66 6.66 13.32 7 14 C1.2832618 20.03433476 1.2832618 20.03433476 -2 21 C-5.75 20.625 -5.75 20.625 -9 20 C-9 21.98 -9 23.96 -9 26 C-9.66 25.67 -10.32 25.34 -11 25 C-10.67 16.75 -10.34 8.5 -10 0 C-5.87357522 -1.03160619 -4.02719563 -1.15062732 0 0 Z M-9 4 C-9 6.97 -9 9.94 -9 13 C-4.40145723 14.12319413 -4.40145723 14.12319413 0 13 C1.55854182 9.88291635 0.68784644 7.3141692 0 4 C-4.61507774 2.95785309 -4.61507774 2.95785309 -9 4 Z M4 12 C5 14 5 14 5 14 Z M0 16 C-0.66 16.66 -1.32 17.32 -2 18 C-0.68 17.67 0.64 17.34 2 17 C1.34 16.67 0.68 16.34 0 16 Z " fill="#121212" transform="translate(65,35)"/>
<path d="M0 0 C1.32 0 2.64 0 4 0 C4.66 0.99 5.32 1.98 6 3 C6.33 2.01 6.66 1.02 7 0 C7.99 0 8.98 0 10 0 C10 3.63 10 7.26 10 11 C8.68 10.67 7.36 10.34 6 10 C5.67 9.34 5.34 8.68 5 8 C4.67 8.99 4.34 9.98 4 11 C2.68 11 1.36 11 0 11 C0 7.37 0 3.74 0 0 Z " fill="#181818" transform="translate(35,65)"/>
<path d="M0 0 C1.32 0 2.64 0 4 0 C4.33 0.66 4.66 1.32 5 2 C5.33 1.34 5.66 0.68 6 0 C7.32 0 8.64 0 10 0 C9.62875 0.886875 9.2575 1.77375 8.875 2.6875 C7.89215772 6.40826005 8.23937836 7.67438135 10 11 C6.125 10.125 6.125 10.125 5 9 C4.67 9.66 4.34 10.32 4 11 C2.68 11 1.36 11 0 11 C0 7.37 0 3.74 0 0 Z " fill="#222222" transform="translate(62,65)"/>
<path d="M0 0 C2.64 0 5.28 0 8 0 C8 1.32 8 2.64 8 4 C8.185625 5.051875 8.37125 6.10375 8.5625 7.1875 C8.706875 8.115625 8.85125 9.04375 9 10 C8 11 8 11 6.15234375 11.09765625 C4.1015625 11.06510417 2.05078125 11.03255208 0 11 C0 7.37 0 3.74 0 0 Z " fill="#070707" transform="translate(50,65)"/>
<path d="M0 0 C5.41139241 -0.36075949 5.41139241 -0.36075949 7.9375 1.1875 C9.43283236 3.73836109 8.69952947 5.20188212 8 8 C8.33 8.99 8.66 9.98 9 11 C7.68 11 6.36 11 5 11 C4.67 10.34 4.34 9.68 4 9 C3.67 9.66 3.34 10.32 3 11 C2.01 11 1.02 11 0 11 C0 7.37 0 3.74 0 0 Z M3 3 C3 3.66 3 4.32 3 5 C3.66 5 4.32 5 5 5 C5 4.34 5 3.68 5 3 C4.34 3 3.68 3 3 3 Z " fill="#0F0F0F" transform="translate(91,65)"/>
<path d="M0 0 C0.33 0.99 0.66 1.98 1 3 C1.66 3.33 2.32 3.66 3 4 C2.34 4 1.68 4 1 4 C1 6.97 1 9.94 1 13 C1.99 13.33 2.98 13.66 4 14 C3.01 15.485 3.01 15.485 2 17 C8.523713 17.66648747 8.523713 17.66648747 14.0625 14.5 C15.0215625 13.2625 15.0215625 13.2625 16 12 C16.33 12.66 16.66 13.32 17 14 C11.2832618 20.03433476 11.2832618 20.03433476 8 21 C4.25 20.625 4.25 20.625 1 20 C1 21.98 1 23.96 1 26 C0.34 25.67 -0.32 25.34 -1 25 C-0.67 16.75 -0.34 8.5 0 0 Z " fill="#181818" transform="translate(55,35)"/>
<path d="M0 0 C-0.99 0.495 -0.99 0.495 -2 1 C-2 1.66 -2 2.32 -2 3 C-2.969375 3.309375 -3.93875 3.61875 -4.9375 3.9375 C-7.84065792 4.69523342 -7.84065792 4.69523342 -9 6 C-9.23075082 7.34747084 -9.41153063 8.70377565 -9.5625 10.0625 C-9.706875 11.361875 -9.85125 12.66125 -10 14 C-10.99 14 -11.98 14 -13 14 C-14.41000664 11.17998673 -14.24548451 9.12992745 -14 6 C-12.73711341 3.22164951 -11.6477829 1.50897228 -9.25 -0.375 C-5.99862351 -1.27816014 -3.27165363 -0.62916416 0 0 Z " fill="#121212" transform="translate(52,35)"/>
<path d="M0 0 C1.32 0 2.64 0 4 0 C4.67119549 1.4562545 5.33681807 2.91507867 6 4.375 C6.556875 5.59316406 6.556875 5.59316406 7.125 6.8359375 C8 9 8 9 8 11 C6.68 11 5.36 11 4 11 C4 10.34 4 9.68 4 9 C3.401875 9.33 2.80375 9.66 2.1875 10 C0 11 0 11 -3 11 C-2.32829194 7.1936543 -1.27253436 3.64793184 0 0 Z M2 5 C3 7 3 7 3 7 Z " fill="#101010" transform="translate(79,65)"/>
<path d="M0 0 C3.375 -0.125 3.375 -0.125 7 0 C7.66 0.66 8.32 1.32 9 2 C8.63723355 4.82957829 7.90305236 7.29084291 7 10 C4.69 10.33 2.38 10.66 0 11 C0 7.37 0 3.74 0 0 Z M3 3 C3 3.66 3 4.32 3 5 C3.99 5 4.98 5 6 5 C6 4.34 6 3.68 6 3 C5.01 3 4.02 3 3 3 Z " fill="#121212" transform="translate(8,65)"/>
<path d="M0 0 C0.99 0 1.98 0 3 0 C3.33 2.31 3.66 4.62 4 7 C4.66 7 5.32 7 6 7 C6.33 4.69 6.66 2.38 7 0 C7.99 0 8.98 0 10 0 C10.25 7.625 10.25 7.625 8 11 C5.6568787 10.74438677 3.32156597 10.40729228 1 10 C-0.60725635 6.78548731 -0.05748185 3.56387464 0 0 Z " fill="#141414" transform="translate(21,65)"/>
<path d="M0 0 C0.598125 0.165 1.19625 0.33 1.8125 0.5 C4.11344336 1.1114124 4.11344336 1.1114124 7 1 C7 3.31 7 5.62 7 8 C5.68 7.34 4.36 6.68 3 6 C2.67 6.66 2.34 7.32 2 8 C1.34 8 0.68 8 0 8 C0 5.36 0 2.72 0 0 Z " fill="#232323" transform="translate(77,80)"/>
<path d="M0 0 C2.64 0 5.28 0 8 0 C8.33 0.99 8.66 1.98 9 3 C6.125 3.125 6.125 3.125 3 3 C2.34 2.34 1.68 1.68 1 1 C1 3.97 1 6.94 1 10 C2.98 10 4.96 10 7 10 C7.33 9.34 7.66 8.68 8 8 C8 8.99 8 9.98 8 11 C5.36 11 2.72 11 0 11 C0 7.37 0 3.74 0 0 Z " fill="#272727" transform="translate(50,65)"/>
<path d="M0 0 C0.33 1.32 0.66 2.64 1 4 C-2.08888522 6.05925681 -2.70935927 6.2390374 -6.1875 6.125 C-8.0746875 6.063125 -8.0746875 6.063125 -10 6 C-9.67 5.01 -9.34 4.02 -9 3 C-6.93359375 2.05078125 -6.93359375 2.05078125 -4.4375 1.3125 C-3.61121094 1.06113281 -2.78492187 0.80976562 -1.93359375 0.55078125 C-1.29550781 0.36902344 -0.65742187 0.18726563 0 0 Z " fill="#080808" transform="translate(67,46)"/>
<path d="M0 0 C1.98 0 3.96 0 6 0 C6 2.31 6 4.62 6 7 C4.68 7.33 3.36 7.66 2 8 C0.74335022 5.09399739 0 3.20395416 0 0 Z " fill="#404040" transform="translate(45,80)"/>
<path d="M0 0 C1.98 0 3.96 0 6 0 C6 2.31 6 4.62 6 7 C4.68 7.33 3.36 7.66 2 8 C0.74335022 5.09399739 0 3.20395416 0 0 Z " fill="#3E3E3E" transform="translate(55,80)"/>
<path d="M0 0 C0.86625 0.825 1.7325 1.65 2.625 2.5 C5.17890641 4.65865899 5.86639751 4.9876294 9.375 5.3125 C10.24125 5.209375 11.1075 5.10625 12 5 C12.33 6.32 12.66 7.64 13 9 C5.80076263 8.63393708 5.80076263 8.63393708 2 5.625 C0 3 0 3 0 0 Z " fill="#2D2D2D" transform="translate(37,47)"/>
<path d="M0 0 C2.125 0.9375 2.125 0.9375 4 2 C3.67 3.65 3.34 5.3 3 7 C1.125 7.625 1.125 7.625 -1 8 C-1.66 7.34 -2.32 6.68 -3 6 C-2.75 3.4375 -2.75 3.4375 -2 1 C-1.34 0.67 -0.68 0.34 0 0 Z M0 2 C0 3.32 0 4.64 0 6 C0.66 6 1.32 6 2 6 C1.67 4.68 1.34 3.36 1 2 C0.67 2 0.34 2 0 2 Z " fill="#1C1C1C" transform="translate(36,80)"/>
<path d="M0 0 C2.125 0.9375 2.125 0.9375 4 2 C3.67 3.65 3.34 5.3 3 7 C1.125 7.625 1.125 7.625 -1 8 C-1.66 7.34 -2.32 6.68 -3 6 C-2.75 3.4375 -2.75 3.4375 -2 1 C-1.34 0.67 -0.68 0.34 0 0 Z M0 2 C0 3.32 0 4.64 0 6 C0.66 5.67 1.32 5.34 2 5 C1.67 4.01 1.34 3.02 1 2 C0.67 2 0.34 2 0 2 Z " fill="#141615" transform="translate(68,80)"/>
<path d="M0 0 C0.66 0.66 1.32 1.32 2 2 C-1.42388092 5.82669043 -4.00724943 7.72278474 -9 9 C-9 8.34 -9 7.68 -9 7 C-9.66 7 -10.32 7 -11 7 C-11 6.34 -11 5.68 -11 5 C-9.9275 5.103125 -8.855 5.20625 -7.75 5.3125 C-3.85789852 5.40072402 -3.85789852 5.40072402 -1.5625 2.5 C-1.046875 1.675 -0.53125 0.85 0 0 Z " fill="#2E2E2E" transform="translate(70,47)"/>
<path d="M0 0 C0 0.99 0 1.98 0 3 C-4.95 3 -9.9 3 -15 3 C-15 2.34 -15 1.68 -15 1 C-10.05 0.67 -5.1 0.34 0 0 Z " fill="#686868" transform="translate(20,82)"/>
<path d="M0 0 C0.99 0 1.98 0 3 0 C3.66 3.3 4.32 6.6 5 10 C3.68 10 2.36 10 1 10 C-0.60725635 6.78548731 -0.05748185 3.56387464 0 0 Z " fill="#0C0C0C" transform="translate(21,65)"/>
<path d="M0 0 C4.95 0 9.9 0 15 0 C15 0.66 15 1.32 15 2 C10.05 2 5.1 2 0 2 C0 1.34 0 0.68 0 0 Z " fill="#6D6D6D" transform="translate(88,83)"/>
<path d="M0 0 C2.125 0.9375 2.125 0.9375 4 2 C2.68 2.33 1.36 2.66 0 3 C0.33 3.66 0.66 4.32 1 5 C1.99 5.33 2.98 5.66 4 6 C2.02 6.99 2.02 6.99 0 8 C-0.99 7.34 -1.98 6.68 -3 6 C-2.625 3.5625 -2.625 3.5625 -2 1 C-1.34 0.67 -0.68 0.34 0 0 Z " fill="#212121" transform="translate(25,80)"/>
<path d="M0 0 C1.32 0.33 2.64 0.66 4 1 C4 4.76687864 3.76462683 5.91190305 2 9 C1.34 9 0.68 9 0 9 C0 6.03 0 3.06 0 0 Z " fill="#050505" transform="translate(36,66)"/>
<path d="M0 0 C1.98 0.66 3.96 1.32 6 2 C6 2.66 6 3.32 6 4 C4.35 3.67 2.7 3.34 1 3 C1 4.98 1 6.96 1 9 C0.34 8.67 -0.32 8.34 -1 8 C-0.67 5.36 -0.34 2.72 0 0 Z " fill="#101010" transform="translate(55,52)"/>
<path d="M0 0 C0.33 1.32 0.66 2.64 1 4 C-0.32 4 -1.64 4 -3 4 C-3 3.34 -3 2.68 -3 2 C-4.32 2.33 -5.64 2.66 -7 3 C-7 2.34 -7 1.68 -7 1 C-4.50935112 0.31292445 -2.62113708 0 0 0 Z " fill="#1F2120" transform="translate(86,72)"/>
<path d="M0 0 C0.99 0.33 1.98 0.66 3 1 C3.1875 3.3125 3.1875 3.3125 3 6 C2.01 6.99 1.02 7.98 0 9 C0 6.03 0 3.06 0 0 Z " fill="#020202" transform="translate(9,66)"/>
<path d="M0 0 C4.29 0 8.58 0 13 0 C13 0.33 13 0.66 13 1 C8.71 1 4.42 1 0 1 C0 0.67 0 0.34 0 0 Z " fill="#6D6D6D" transform="translate(89,86)"/>
<path d="M0 0 C4.29 0 8.58 0 13 0 C13 0.33 13 0.66 13 1 C8.71 1 4.42 1 0 1 C0 0.67 0 0.34 0 0 Z " fill="#6D6D6D" transform="translate(6,86)"/>
<path d="M0 0 C0.33 0 0.66 0 1 0 C1 2.64 1 5.28 1 8 C0.34 7.34 -0.32 6.68 -1 6 C-0.625 2.875 -0.625 2.875 0 0 Z " fill="#090909" transform="translate(19,65)"/>
<path d="M0 0 C0.66 0 1.32 0 2 0 C2 1.98 2 3.96 2 6 C1.34 6 0.68 6 0 6 C0 4.02 0 2.04 0 0 Z " fill="#000000" transform="translate(25,66)"/>
<path d="M0 0 C1.65 0 3.3 0 5 0 C5 2.64 5 5.28 5 8 C4.67 8 4.34 8 4 8 C4 5.69 4 3.38 4 1 C2.68 0.67 1.36 0.34 0 0 Z " fill="#010101" transform="translate(45,39)"/>
<path d="M0 0 C0.33 0 0.66 0 1 0 C1 3.63 1 7.26 1 11 C0.67 11 0.34 11 0 11 C0 7.37 0 3.74 0 0 Z " fill="#0D0D0D" transform="translate(48,65)"/>
<path d="M0 0 C0.66 0.66 1.32 1.32 2 2 C1.625 5.125 1.625 5.125 1 8 C0.67 8 0.34 8 0 8 C0 5.36 0 2.72 0 0 Z " fill="#050505" transform="translate(32,65)"/>
<path d="M0 0 C0.33 0 0.66 0 1 0 C1 2.97 1 5.94 1 9 C0.67 9 0.34 9 0 9 C0 6.03 0 3.06 0 0 Z " fill="#070707" transform="translate(6,66)"/>
<path d="M0 0 C0.86625 0.556875 0.86625 0.556875 1.75 1.125 C-0.89 1.125 -3.53 1.125 -6.25 1.125 C-2.80384615 -1.09038462 -2.80384615 -1.09038462 0 0 Z " fill="#0F0F0F" transform="translate(56.25,62.875)"/>
<path d="M0 0 C2.64 0 5.28 0 8 0 C8 0.33 8 0.66 8 1 C5.36 1 2.72 1 0 1 C0 0.67 0 0.34 0 0 Z " fill="#9C9C9C" transform="translate(42,109)"/>
<path d="M0 0 C2.64 0 5.28 0 8 0 C8 0.33 8 0.66 8 1 C5.36 1 2.72 1 0 1 C0 0.67 0 0.34 0 0 Z " fill="#0C0C0C" transform="translate(50,77)"/>
<path d="M0 0 C0.33 0 0.66 0 1 0 C1.33 2.31 1.66 4.62 2 7 C1.34 7 0.68 7 0 7 C0 4.69 0 2.38 0 0 Z " fill="#0D0D0D" transform="translate(57,40)"/>
<path d="M0 0 C0.33 0 0.66 0 1 0 C1 2.31 1 4.62 1 7 C0.67 7 0.34 7 0 7 C0 4.69 0 2.38 0 0 Z " fill="#0F0F0F" transform="translate(71,40)"/>
<path d="M0 0 C0.33 0 0.66 0 1 0 C1 1.98 1 3.96 1 6 C0.67 6 0.34 6 0 6 C0 4.02 0 2.04 0 0 Z " fill="#1F1F1F" transform="translate(75,81)"/>
<path d="M0 0 C1.98 0 3.96 0 6 0 C6 0.33 6 0.66 6 1 C4.02 1 2.04 1 0 1 C0 0.67 0 0.34 0 0 Z " fill="#0F0F0F" transform="translate(91,63)"/>
<path d="M0 0 C1.98 0 3.96 0 6 0 C6 0.33 6 0.66 6 1 C4.02 1 2.04 1 0 1 C0 0.67 0 0.34 0 0 Z " fill="#101010" transform="translate(9,63)"/>
<path d="M0 0 C1.32 0.33 2.64 0.66 4 1 C3.01 1.33 2.02 1.66 1 2 C0.67 1.34 0.34 0.68 0 0 Z " fill="#0B0B0B" transform="translate(24,77)"/>
<path d="M0 0 C0.33 0 0.66 0 1 0 C1 1.65 1 3.3 1 5 C0.67 5 0.34 5 0 5 C0 3.35 0 1.7 0 0 Z " fill="#0C0C0C" transform="translate(57,56)"/>
<path d="M0 0 C0.33 0 0.66 0 1 0 C1 1.65 1 3.3 1 5 C0.67 5 0.34 5 0 5 C0 3.35 0 1.7 0 0 Z " fill="#101010" transform="translate(36,41)"/>
<path d="M0 0 C0.33 0 0.66 0 1 0 C1 1.65 1 3.3 1 5 C0.67 5 0.34 5 0 5 C0 3.35 0 1.7 0 0 Z " fill="#0C0C0C" transform="translate(64,41)"/>
<path d="M0 0 C0.33 0 0.66 0 1 0 C1 1.65 1 3.3 1 5 C0.67 5 0.34 5 0 5 C0 3.35 0 1.7 0 0 Z " fill="#060606" transform="translate(43,41)"/>
<path d="M0 0 C1.65 0 3.3 0 5 0 C5 0.33 5 0.66 5 1 C3.35 1 1.7 1 0 1 C0 0.67 0 0.34 0 0 Z " fill="#010101" transform="translate(58,39)"/>
<path d="M0 0 C1 4 1 4 1 4 Z " fill="#0B0B0B" transform="translate(73,82)"/>
<path d="M0 0 C1 4 1 4 1 4 Z " fill="#090909" transform="translate(63,82)"/>
<path d="M0 0 C1 4 1 4 1 4 Z " fill="#121212" transform="translate(31,82)"/>
<path d="M0 0 C4 1 4 1 4 1 Z " fill="#151515" transform="translate(46,57)"/>
<path d="M0 0 C4 1 4 1 4 1 Z " fill="#000000" transform="translate(59,47)"/>
<path d="M0 0 C4 1 4 1 4 1 Z " fill="#020202" transform="translate(45,47)"/>
<path d="M0 0 C4 1 4 1 4 1 Z " fill="#0F0F0F" transform="translate(52,21)"/>
<path d="M0 0 C0.99 0.495 0.99 0.495 2 1 C1.01 1.495 1.01 1.495 0 2 C0 1.34 0 0.68 0 0 Z " fill="#101010" transform="translate(36,77)"/>
<path d="M0 0 C3 1 3 1 3 1 Z " fill="#111111" transform="translate(76,77)"/>
<path d="M0 0 C3 1 3 1 3 1 Z " fill="#111111" transform="translate(69,77)"/>
<path d="M0 0 C3 1 3 1 3 1 Z " fill="#131313" transform="translate(42,77)"/>
<path d="M0 0 C0.33 0.66 0.66 1.32 1 2 C0.34 1.67 -0.32 1.34 -1 1 C-0.67 0.67 -0.34 0.34 0 0 Z " fill="#0B0B0B" transform="translate(74,73)"/>
<path d="" fill="#0D0D0D" transform="translate(0,0)"/>
<path d="M0 0 C3 1 3 1 3 1 Z " fill="#121212" transform="translate(80,63)"/>
<path d="M0 0 C3 1 3 1 3 1 Z " fill="#151515" transform="translate(69,63)"/>
<path d="M0 0 C3 1 3 1 3 1 Z " fill="#131313" transform="translate(36,63)"/>
<path d="M0 0 C3 1 3 1 3 1 Z " fill="#171717" transform="translate(28,63)"/>
<path d="M0 0 C3 1 3 1 3 1 Z " fill="#151515" transform="translate(21,63)"/>
<path d="M0 0 C3 1 3 1 3 1 Z " fill="#0E0E0E" transform="translate(59,57)"/>
<path d="M0 0 C3 1 3 1 3 1 Z " fill="#0F0F0F" transform="translate(63,56)"/>
<path d="M0 0 C2 1 2 1 2 1 Z " fill="#2E2E2E" transform="translate(36,89)"/>
<path d="M0 0 C2 1 2 1 2 1 Z " fill="#323232" transform="translate(25,89)"/>
<path d="" fill="#050706" transform="translate(0,0)"/>
<path d="" fill="#090909" transform="translate(0,0)"/>
<path d="M0 0 C2 1 2 1 2 1 Z " fill="#0D0D0D" transform="translate(34,79)"/>
<path d="M0 0 C2 1 2 1 2 1 Z " fill="#0C0C0C" transform="translate(23,79)"/>
<path d="M0 0 C2 1 2 1 2 1 Z " fill="#0E0E0E" transform="translate(97,77)"/>
<path d="M0 0 C2 1 2 1 2 1 Z " fill="#151515" transform="translate(91,77)"/>
<path d="M0 0 C2 1 2 1 2 1 Z " fill="#0E100F" transform="translate(84,77)"/>
<path d="M0 0 C2 1 2 1 2 1 Z " fill="#131313" transform="translate(63,77)"/>
<path d="M0 0 C2 1 2 1 2 1 Z " fill="#101010" transform="translate(9,77)"/>
<path d="" fill="#353535" transform="translate(0,0)"/>
<path d="" fill="#353535" transform="translate(0,0)"/>
<path d="" fill="#101010" transform="translate(0,0)"/>
<path d="" fill="#080A0A" transform="translate(0,0)"/>
<path d="" fill="#0D0D0D" transform="translate(0,0)"/>
<path d="" fill="#0B0B0B" transform="translate(0,0)"/>
<path d="" fill="#171717" transform="translate(0,0)"/>
<path d="" fill="#090909" transform="translate(0,0)"/>
<path d="" fill="#1E1E1E" transform="translate(0,0)"/>
<path d="" fill="#121212" transform="translate(0,0)"/>
<path d="" fill="#080808" transform="translate(0,0)"/>
<path d="" fill="#0C0C0C" transform="translate(0,0)"/>
<path d="" fill="#333333" transform="translate(0,0)"/>
<path d="" fill="#050505" transform="translate(0,0)"/>
<path d="" fill="#181818" transform="translate(0,0)"/>
<path d="" fill="#0D0D0D" transform="translate(0,0)"/>
<path d="M0 0 C2 1 2 1 2 1 Z " fill="#111111" transform="translate(63,63)"/>
<path d="M0 0 C2 1 2 1 2 1 Z " fill="#0D0D0D" transform="translate(43,63)"/>
<path d="M0 0 C2 1 2 1 2 1 Z " fill="#070707" transform="translate(43,56)"/>
<path d="" fill="#0F0F0F" transform="translate(0,0)"/>
<path d="" fill="#0C0C0C" transform="translate(0,0)"/>
<path d="" fill="#181818" transform="translate(0,0)"/>
<path d="M0 0 C2 1 2 1 2 1 Z " fill="#0E0E0E" transform="translate(58,23)"/>
<path d="M0 0 C2 1 2 1 2 1 Z " fill="#0D0D0D" transform="translate(56,22)"/>
<path d="" fill="#303030" transform="translate(0,0)"/>
<path d="" fill="#010101" transform="translate(0,0)"/>
<path d="" fill="#070707" transform="translate(0,0)"/>
<path d="" fill="#020202" transform="translate(0,0)"/>
<path d="" fill="#030303" transform="translate(0,0)"/>
<path d="" fill="#030303" transform="translate(0,0)"/>
<path d="" fill="#000000" transform="translate(0,0)"/>
<path d="" fill="#080808" transform="translate(0,0)"/>
<path d="" fill="#020202" transform="translate(0,0)"/>
<path d="" fill="#000000" transform="translate(0,0)"/>
<path d="" fill="#000000" transform="translate(0,0)"/>
<path d="" fill="#000000" transform="translate(0,0)"/>
<path d="" fill="#030303" transform="translate(0,0)"/>
<path d="" fill="#000000" transform="translate(0,0)"/>
<path d="" fill="#000000" transform="translate(0,0)"/>
<path d="" fill="#050505" transform="translate(0,0)"/>
<path d="" fill="#0C0C0C" transform="translate(0,0)"/>
<path d="" fill="#020202" transform="translate(0,0)"/>
<path d="" fill="#333333" transform="translate(0,0)"/>
<path d="" fill="#010101" transform="translate(0,0)"/>
<path d="" fill="#030303" transform="translate(0,0)"/>
<path d="" fill="#000000" transform="translate(0,0)"/>
<path d="" fill="#010302" transform="translate(0,0)"/>
<path d="" fill="#494949" transform="translate(0,0)"/>
<path d="" fill="#0D0D0D" transform="translate(0,0)"/>
<path d="" fill="#111111" transform="translate(0,0)"/>
<path d="" fill="#0E0E0E" transform="translate(0,0)"/>
<path d="" fill="#020403" transform="translate(0,0)"/>
<path d="" fill="#010302" transform="translate(0,0)"/>
<path d="" fill="#060606" transform="translate(0,0)"/>
<path d="" fill="#0E0E0E" transform="translate(0,0)"/>
<path d="" fill="#1D1D1D" transform="translate(0,0)"/>
<path d="" fill="#0F0F0F" transform="translate(0,0)"/>
<path d="" fill="#131313" transform="translate(0,0)"/>
<path d="" fill="#020202" transform="translate(0,0)"/>
<path d="" fill="#000000" transform="translate(0,0)"/>
<path d="" fill="#0E0E0E" transform="translate(0,0)"/>
<path d="" fill="#010101" transform="translate(0,0)"/>
<path d="" fill="#050505" transform="translate(0,0)"/>
<path d="" fill="#090909" transform="translate(0,0)"/>
<path d="" fill="#151515" transform="translate(0,0)"/>
<path d="" fill="#1B1B1B" transform="translate(0,0)"/>
<path d="" fill="#000100" transform="translate(0,0)"/>
<path d="" fill="#000000" transform="translate(0,0)"/>
<path d="" fill="#222222" transform="translate(0,0)"/>
<path d="" fill="#161616" transform="translate(0,0)"/>
<path d="" fill="#161616" transform="translate(0,0)"/>
<path d="" fill="#131313" transform="translate(0,0)"/>
<path d="" fill="#171717" transform="translate(0,0)"/>
<path d="" fill="#181818" transform="translate(0,0)"/>
<path d="" fill="#000000" transform="translate(0,0)"/>
<path d="" fill="#000000" transform="translate(0,0)"/>
<path d="" fill="#0A0A0A" transform="translate(0,0)"/>
<path d="" fill="#171717" transform="translate(0,0)"/>
<path d="" fill="#0A0A0A" transform="translate(0,0)"/>
<path d="" fill="#181818" transform="translate(0,0)"/>
<path d="" fill="#101010" transform="translate(0,0)"/>
<path d="" fill="#090909" transform="translate(0,0)"/>
<path d="" fill="#131313" transform="translate(0,0)"/>
<path d="" fill="#0A0A0A" transform="translate(0,0)"/>
<path d="" fill="#181818" transform="translate(0,0)"/>
<path d="" fill="#181818" transform="translate(0,0)"/>
<path d="" fill="#1D1D1D" transform="translate(0,0)"/>
<path d="" fill="#050505" transform="translate(0,0)"/>
<path d="" fill="#1C1C1C" transform="translate(0,0)"/>
<path d="" fill="#010101" transform="translate(0,0)"/>
<path d="" fill="#030303" transform="translate(0,0)"/>
<path d="" fill="#000000" transform="translate(0,0)"/>
<path d="" fill="#030303" transform="translate(0,0)"/>
<path d="" fill="#000000" transform="translate(0,0)"/>
<path d="" fill="#0C0C0C" transform="translate(0,0)"/>
<path d="" fill="#111111" transform="translate(0,0)"/>
<path d="" fill="#252525" transform="translate(0,0)"/>
<path d="" fill="#2D2D2D" transform="translate(0,0)"/>
<path d="" fill="#252525" transform="translate(0,0)"/>
<path d="" fill="#252525" transform="translate(0,0)"/>
<path d="" fill="#252525" transform="translate(0,0)"/>
<path d="" fill="#2D2D2D" transform="translate(0,0)"/>
<path d="" fill="#3A3A3A" transform="translate(0,0)"/>
<path d="" fill="#151515" transform="translate(0,0)"/>
<path d="" fill="#0F0F0F" transform="translate(0,0)"/>
<path d="" fill="#0A0A0A" transform="translate(0,0)"/>
<path d="" fill="#090909" transform="translate(0,0)"/>
<path d="" fill="#010101" transform="translate(0,0)"/>
<path d="" fill="#030303" transform="translate(0,0)"/>
<path d="" fill="#151515" transform="translate(0,0)"/>
<path d="" fill="#1E1E1E" transform="translate(0,0)"/>
<path d="" fill="#0C0C0C" transform="translate(0,0)"/>
<path d="" fill="#141414" transform="translate(0,0)"/>
<path d="" fill="#0F0F0F" transform="translate(0,0)"/>
<path d="" fill="#131313" transform="translate(0,0)"/>
<path d="" fill="#070707" transform="translate(0,0)"/>
<path d="" fill="#0C0C0C" transform="translate(0,0)"/>
<path d="" fill="#000000" transform="translate(0,0)"/>
<path d="" fill="#010101" transform="translate(0,0)"/>
<path d="" fill="#1A1A1A" transform="translate(0,0)"/>
<path d="" fill="#000000" transform="translate(0,0)"/>
<path d="" fill="#111111" transform="translate(0,0)"/>
<path d="" fill="#010101" transform="translate(0,0)"/>
<path d="" fill="#141414" transform="translate(0,0)"/>
<path d="" fill="#020202" transform="translate(0,0)"/>
<path d="" fill="#1F1F1F" transform="translate(0,0)"/>
<path d="" fill="#0D0D0D" transform="translate(0,0)"/>
<path d="" fill="#020202" transform="translate(0,0)"/>
<path d="" fill="#111111" transform="translate(0,0)"/>
<path d="" fill="#111111" transform="translate(0,0)"/>
</svg>
